<svg width="38" height="38" viewBox="0 0 38 38" fill="none" xmlns="http://www.w3.org/2000/svg">
<g id="ic:sharp-ads-click">
<path id="Vector" d="M18.5412 28.4841C16.1038 28.3689 13.8046 27.3192 12.121 25.553C10.4374 23.7869 9.49883 21.44 9.50033 19C9.50033 13.7591 13.7595 9.49996 19.0003 9.49996C24.0987 9.49996 28.247 13.5058 28.4845 18.5408L25.1595 17.5433C24.9007 16.4457 24.3535 15.4371 23.5744 14.6218C22.7952 13.8066 21.8125 13.2142 20.7278 12.9058C19.6431 12.5975 18.4957 12.5845 17.4042 12.8681C16.3128 13.1518 15.3169 13.7217 14.5195 14.5191C13.7221 15.3165 13.1521 16.3124 12.8685 17.4039C12.5849 18.4953 12.5979 19.6427 12.9062 20.7274C13.2145 21.8122 13.8069 22.7949 14.6222 23.574C15.4375 24.3531 16.4461 24.9003 17.5437 25.1591L18.5412 28.4841ZM34.8337 19C34.8337 19.475 34.8178 19.95 34.7703 20.425L31.6512 19.4908C31.667 19.3325 31.667 19.1583 31.667 19C31.667 12.0016 25.9987 6.33329 19.0003 6.33329C12.002 6.33329 6.33366 12.0016 6.33366 19C6.33366 25.9983 12.002 31.6666 19.0003 31.6666C19.1587 31.6666 19.3328 31.6666 19.4912 31.6508L20.4253 34.77C19.9503 34.8175 19.4753 34.8333 19.0003 34.8333C10.2603 34.8333 3.16699 27.74 3.16699 19C3.16699 10.26 10.2603 3.16663 19.0003 3.16663C27.7403 3.16663 34.8337 10.26 34.8337 19ZM28.8645 25.745L34.8337 23.75L19.0003 19L23.7503 34.8333L25.7453 28.8641L32.5062 35.625L35.6412 32.49L28.8645 25.745Z" fill="#EFBB00"/>
</g>
</svg>
