<svg width="22" height="17" viewBox="0 0 22 17" fill="none" xmlns="http://www.w3.org/2000/svg">
<path d="M5.86018 7.55129C5.12044 7.55379 4.3938 7.74665 3.75018 8.11129C4.65633 5.7658 6.15924 3.69758 8.11018 2.11129C8.2218 2.01937 8.31422 1.90636 8.38217 1.77871C8.45012 1.65107 8.49226 1.51129 8.50619 1.36736C8.52012 1.22343 8.50556 1.07816 8.46335 0.939857C8.42114 0.801552 8.3521 0.672916 8.26018 0.561293C8.16825 0.449669 8.05524 0.357244 7.9276 0.289295C7.79995 0.221347 7.66017 0.179205 7.51624 0.165277C7.37231 0.151348 7.22705 0.165905 7.08874 0.208117C6.95044 0.250328 6.8218 0.319367 6.71018 0.411292C2.71018 3.66129 0.930176 8.16129 0.930176 10.9513C0.937068 11.9378 1.23105 12.9009 1.77622 13.7231C2.32139 14.5453 3.09416 15.191 4.00018 15.5813C4.58654 15.8653 5.22866 16.0156 5.88018 16.0213C6.45364 16.0492 7.02678 15.9603 7.56487 15.76C8.10295 15.5598 8.59476 15.2523 9.01048 14.8563C9.42619 14.4603 9.75715 13.984 9.98329 13.4563C10.2094 12.9286 10.326 12.3604 10.326 11.7863C10.326 11.2122 10.2094 10.644 9.98329 10.1163C9.75715 9.58854 9.42619 9.11224 9.01048 8.71624C8.59476 8.32024 8.10295 8.0128 7.56487 7.81255C7.02678 7.6123 6.45364 7.52342 5.88018 7.55129H5.86018Z" fill="#EFBB00"/>
<path d="M16.9998 7.54953C16.26 7.55113 15.5331 7.74404 14.8898 8.10953C15.7956 5.76649 17.2946 3.69896 19.2398 2.10953C19.3616 2.02177 19.4641 1.91002 19.541 1.78116C19.618 1.6523 19.6678 1.50905 19.6873 1.36024C19.7068 1.21142 19.6956 1.06019 19.6545 0.915843C19.6134 0.771496 19.5432 0.637091 19.4482 0.520899C19.3532 0.404706 19.2354 0.309185 19.1021 0.240213C18.9688 0.171242 18.8228 0.13028 18.6731 0.119848C18.5233 0.109416 18.3731 0.129734 18.2315 0.179553C18.0899 0.229372 17.96 0.307637 17.8498 0.409531C13.8498 3.65953 12.0698 8.15953 12.0698 10.9495C12.0746 11.9249 12.36 12.8782 12.8919 13.6957C13.4239 14.5131 14.18 15.1602 15.0698 15.5595C15.671 15.8519 16.3313 16.0024 16.9998 15.9995C17.5733 16.0274 18.1464 15.9385 18.6845 15.7383C19.2226 15.538 19.7144 15.2306 20.1301 14.8346C20.5458 14.4386 20.8768 13.9623 21.1029 13.4346C21.3291 12.9068 21.4457 12.3387 21.4457 11.7645C21.4457 11.1904 21.3291 10.6222 21.1029 10.0945C20.8768 9.56678 20.5458 9.09048 20.1301 8.69448C19.7144 8.29848 19.2226 7.99104 18.6845 7.79079C18.1464 7.59054 17.5733 7.50166 16.9998 7.52953V7.54953Z" fill="#EFBB00"/>
</svg>
