<svg width="20" height="20" viewBox="0 0 20 20" fill="none" xmlns="http://www.w3.org/2000/svg">
<g opacity="0.5">
<path d="M3.33366 16.6654C2.87533 16.6654 2.48283 16.502 2.15616 16.1754C1.82949 15.8487 1.66644 15.4565 1.66699 14.9987V4.9987C1.66699 4.54037 1.83033 4.14787 2.15699 3.8212C2.48366 3.49453 2.87588 3.33148 3.33366 3.33203H16.667C17.1253 3.33203 17.5178 3.49537 17.8445 3.82203C18.1712 4.1487 18.3342 4.54092 18.3337 4.9987V14.9987C18.3337 15.457 18.1703 15.8495 17.8437 16.1762C17.517 16.5029 17.1248 16.6659 16.667 16.6654H3.33366ZM10.0003 10.832L16.667 6.66537V4.9987L10.0003 9.16537L3.33366 4.9987V6.66537L10.0003 10.832Z" fill="black"/>
</g>
</svg>
