<svg width="20" height="20" viewBox="0 0 20 20" fill="none" xmlns="http://www.w3.org/2000/svg">
<g opacity="0.5">
<path d="M12.7408 12.2319C12.6184 12.1919 11.8454 11.8434 12.3284 10.3749H12.3215C13.5808 9.07802 14.5431 6.99109 14.5431 4.93648C14.5431 1.77725 12.4423 0.121094 10.0008 0.121094C7.55768 0.121094 5.46845 1.77648 5.46845 4.93648C5.46845 6.99956 6.42537 9.09494 7.69229 10.3888C8.18614 11.6842 7.30306 12.1649 7.11845 12.2326C4.56152 13.1572 1.56152 14.8426 1.56152 16.5065V17.1303C1.56152 19.3972 5.95691 19.9126 10.0246 19.9126C14.0984 19.9126 18.4384 19.3972 18.4384 17.1303V16.5065C18.4384 14.7926 15.4238 13.1203 12.7408 12.2319Z" fill="black"/>
</g>
</svg>
