<svg width="20" height="20" viewBox="0 0 20 20" fill="none" xmlns="http://www.w3.org/2000/svg">
<path d="M5.379 15.8333L1.6665 18.75V3.33333C1.6665 3.11232 1.7543 2.90036 1.91058 2.74408C2.06686 2.5878 2.27882 2.5 2.49984 2.5H17.4998C17.7208 2.5 17.9328 2.5878 18.0891 2.74408C18.2454 2.90036 18.3332 3.11232 18.3332 3.33333V15C18.3332 15.221 18.2454 15.433 18.0891 15.5893C17.9328 15.7455 17.7208 15.8333 17.4998 15.8333H5.379ZM5.83317 8.33333V10H7.49984V8.33333H5.83317ZM9.1665 8.33333V10H10.8332V8.33333H9.1665ZM12.4998 8.33333V10H14.1665V8.33333H12.4998Z" fill="#EFBB00"/>
</svg>
