<svg width="20" height="20" viewBox="0 0 20 20" fill="none" xmlns="http://www.w3.org/2000/svg">
<path d="M3.33317 16.6654C2.87484 16.6654 2.48234 16.502 2.15567 16.1754C1.82901 15.8487 1.66595 15.4565 1.66651 14.9987V4.9987C1.66651 4.54037 1.82984 4.14787 2.15651 3.8212C2.48317 3.49453 2.87539 3.33148 3.33317 3.33203H16.6665C17.1248 3.33203 17.5173 3.49537 17.844 3.82203C18.1707 4.1487 18.3337 4.54092 18.3332 4.9987V14.9987C18.3332 15.457 18.1698 15.8495 17.8432 16.1762C17.5165 16.5029 17.1243 16.6659 16.6665 16.6654H3.33317ZM9.99984 10.832L16.6665 6.66537V4.9987L9.99984 9.16537L3.33317 4.9987V6.66537L9.99984 10.832Z" fill="#EFBB00"/>
</svg>
