<svg width="20" height="20" viewBox="0 0 20 20" fill="none" xmlns="http://www.w3.org/2000/svg">
<path d="M16.625 17.5C14.8333 17.5 13.0869 17.1042 11.3858 16.3125C9.68472 15.5208 8.17778 14.4653 6.865 13.1458C5.55222 11.8264 4.49667 10.3158 3.69833 8.61417C2.9 6.9125 2.50056 5.16611 2.5 3.375V2.9375C2.5 2.78472 2.51389 2.63889 2.54167 2.5H7.41667L8.1875 6.6875L5.8125 9.08333C6.39583 10.0833 7.12861 11.0208 8.01083 11.8958C8.89306 12.7708 9.86167 13.5278 10.9167 14.1667L13.3333 11.75L17.5 12.5833V17.4583C17.3611 17.4722 17.2153 17.4828 17.0625 17.49C16.9097 17.4972 16.7639 17.5006 16.625 17.5Z" fill="#EFBB00"/>
</svg>
