<svg width="20" height="20" viewBox="0 0 20 20" fill="none" xmlns="http://www.w3.org/2000/svg">
<path d="M13.1792 12.1108C13.0569 12.0708 12.2838 11.7223 12.7669 10.2538H12.76C14.0192 8.95692 14.9815 6.87 14.9815 4.81538C14.9815 1.65615 12.8808 0 10.4392 0C7.99615 0 5.90692 1.65538 5.90692 4.81538C5.90692 6.87846 6.86385 8.97385 8.13077 10.2677C8.62462 11.5631 7.74154 12.0438 7.55692 12.1115C5 13.0362 2 14.7215 2 16.3854V17.0092C2 19.2762 6.39538 19.7915 10.4631 19.7915C14.5369 19.7915 18.8769 19.2762 18.8769 17.0092V16.3854C18.8769 14.6715 15.8623 12.9992 13.1792 12.1108Z" fill="#EFBB00"/>
</svg>
