<svg width="30" height="30" viewBox="0 0 30 30" fill="none" xmlns="http://www.w3.org/2000/svg">
<g clip-path="url(#clip0_330_98)">
<path d="M17.5 10H5.83333C5.61232 10 5.40036 9.9122 5.24408 9.75592C5.0878 9.59964 5 9.38768 5 9.16667V5.83333C5 5.61232 5.0878 5.40036 5.24408 5.24408C5.40036 5.0878 5.61232 5 5.83333 5H17.5C17.721 5 17.933 5.0878 18.0893 5.24408C18.2455 5.40036 18.3333 5.61232 18.3333 5.83333V9.16667C18.3333 9.38768 18.2455 9.59964 18.0893 9.75592C17.933 9.9122 17.721 10 17.5 10ZM6.66667 8.33333H16.6667V6.61667H6.66667V8.33333Z" fill="black"/>
<path d="M17.5 11.7334H5.83333C5.61232 11.7334 5.40036 11.8212 5.24408 11.9775C5.0878 12.1338 5 12.3457 5 12.5667V15.8334C5 16.0544 5.0878 16.2664 5.24408 16.4227C5.40036 16.5789 5.61232 16.6667 5.83333 16.6667H15.3L18.3333 13.5834V12.5667C18.3333 12.3457 18.2455 12.1338 18.0893 11.9775C17.933 11.8212 17.721 11.7334 17.5 11.7334ZM16.6667 15.0001H6.66667V13.3334H16.6667V15.0001Z" fill="black"/>
<path d="M9.21651 26.2584V26.2084L9.48317 25.0501H3.33317V3.33341H19.9998V11.8751L21.6665 10.3001V2.50008C21.6665 2.27907 21.5787 2.06711 21.4224 1.91083C21.2661 1.75455 21.0542 1.66675 20.8332 1.66675H2.49984C2.27882 1.66675 2.06686 1.75455 1.91058 1.91083C1.7543 2.06711 1.6665 2.27907 1.6665 2.50008V25.8334C1.6665 26.0544 1.7543 26.2664 1.91058 26.4227C2.06686 26.5789 2.27882 26.6667 2.49984 26.6667H9.16651C9.17337 26.5296 9.19008 26.3931 9.21651 26.2584Z" fill="black"/>
<path d="M18.3331 15.9751L17.6831 16.6334C17.8444 16.6002 17.9922 16.5199 18.1079 16.4027C18.2235 16.2856 18.3019 16.1368 18.3331 15.9751Z" fill="black"/>
<path d="M5 22.4499C5 22.6709 5.0878 22.8829 5.24408 23.0392C5.40036 23.1955 5.61232 23.2833 5.83333 23.2833H9.86667L10.1167 22.1999L10.225 21.7416V21.6999H6.66667V19.9999H11.95L13.6167 18.3333H5.83333C5.61232 18.3333 5.40036 18.421 5.24408 18.5773C5.0878 18.7336 5 18.9456 5 19.1666V22.4499Z" fill="black"/>
<path d="M27.9082 13.8916L25.0999 11.0832C24.9752 10.9583 24.8272 10.8591 24.6641 10.7914C24.5011 10.7238 24.3264 10.689 24.1499 10.689C23.9734 10.689 23.7986 10.7238 23.6356 10.7914C23.4726 10.8591 23.3245 10.9583 23.1999 11.0832L11.7749 22.5749L10.8332 26.5832C10.7979 26.7562 10.7971 26.9343 10.8309 27.1076C10.8646 27.2808 10.9321 27.4457 11.0297 27.5928C11.1272 27.7398 11.2528 27.8662 11.3993 27.9647C11.5457 28.0632 11.7102 28.1318 11.8832 28.1666C11.9691 28.1752 12.0556 28.1752 12.1415 28.1666C12.2436 28.1832 12.3478 28.1832 12.4499 28.1666L16.4915 27.2749L27.9082 15.8332C28.0329 15.7093 28.1319 15.5619 28.1994 15.3996C28.267 15.2373 28.3018 15.0632 28.3018 14.8874C28.3018 14.7116 28.267 14.5375 28.1994 14.3752C28.1319 14.2128 28.0329 14.0655 27.9082 13.9416V13.8916ZM15.6415 25.7582L12.5915 26.4332L13.3332 23.4082L21.8999 14.7499L24.2499 17.0999L15.6415 25.7582ZM25.1915 16.1582L22.8415 13.8082L24.1665 12.4999L26.5332 14.8666L25.1915 16.1582Z" fill="black"/>
</g>
<defs>
<clipPath id="clip0_330_98">
<rect width="30" height="30" fill="white"/>
</clipPath>
</defs>
</svg>
